<mxfile host="app.diagrams.net" modified="2024-05-24T16:59:28.747Z" agent="Mozilla/5.0 (Windows NT 10.0; Win64; x64) AppleWebKit/537.36 (KHTML, like Gecko) Chrome/124.0.0.0 Safari/537.36" etag="2tNkQrrMA6z_ZVLs_wlV" version="24.4.8" type="device">
  <diagram id="C5RBs43oDa-KdzZeNtuy" name="Page-1">
    <mxGraphModel dx="989" dy="514" grid="1" gridSize="10" guides="1" tooltips="1" connect="1" arrows="1" fold="1" page="1" pageScale="1" pageWidth="827" pageHeight="1169" background="#FFFFFF" math="0" shadow="0">
      <root>
        <mxCell id="WIyWlLk6GJQsqaUBKTNV-0" />
        <mxCell id="WIyWlLk6GJQsqaUBKTNV-1" parent="WIyWlLk6GJQsqaUBKTNV-0" />
        <mxCell id="WIyWlLk6GJQsqaUBKTNV-2" value="" style="rounded=0;html=1;jettySize=auto;orthogonalLoop=1;fontSize=11;endArrow=block;endFill=0;endSize=8;strokeWidth=1;shadow=0;labelBackgroundColor=none;edgeStyle=orthogonalEdgeStyle;" parent="WIyWlLk6GJQsqaUBKTNV-1" source="WIyWlLk6GJQsqaUBKTNV-3" target="WIyWlLk6GJQsqaUBKTNV-6" edge="1">
          <mxGeometry relative="1" as="geometry" />
        </mxCell>
        <mxCell id="WIyWlLk6GJQsqaUBKTNV-3" value="Admin interface" style="rounded=1;whiteSpace=wrap;html=1;fontSize=12;glass=0;strokeWidth=1;shadow=0;fillColor=#f8cecc;strokeColor=#b85450;" parent="WIyWlLk6GJQsqaUBKTNV-1" vertex="1">
          <mxGeometry x="155" y="160" width="120" height="40" as="geometry" />
        </mxCell>
        <mxCell id="WIyWlLk6GJQsqaUBKTNV-5" value="" style="edgeStyle=orthogonalEdgeStyle;rounded=0;html=1;jettySize=auto;orthogonalLoop=1;fontSize=11;endArrow=block;endFill=0;endSize=8;strokeWidth=1;shadow=0;labelBackgroundColor=none;" parent="WIyWlLk6GJQsqaUBKTNV-1" source="WIyWlLk6GJQsqaUBKTNV-6" target="WIyWlLk6GJQsqaUBKTNV-7" edge="1">
          <mxGeometry y="10" relative="1" as="geometry">
            <mxPoint as="offset" />
          </mxGeometry>
        </mxCell>
        <mxCell id="WIyWlLk6GJQsqaUBKTNV-6" value="Generate QR" style="rhombus;whiteSpace=wrap;html=1;shadow=0;fontFamily=Helvetica;fontSize=12;align=center;strokeWidth=1;spacing=6;spacingTop=-4;fillColor=#dae8fc;strokeColor=#6c8ebf;" parent="WIyWlLk6GJQsqaUBKTNV-1" vertex="1">
          <mxGeometry x="375" y="130" width="100" height="100" as="geometry" />
        </mxCell>
        <mxCell id="WIyWlLk6GJQsqaUBKTNV-7" value="Public interface / profile" style="rounded=1;whiteSpace=wrap;html=1;fontSize=12;glass=0;strokeWidth=1;shadow=0;fillColor=#d5e8d4;strokeColor=#82b366;" parent="WIyWlLk6GJQsqaUBKTNV-1" vertex="1">
          <mxGeometry x="585" y="160" width="120" height="40" as="geometry" />
        </mxCell>
        <mxCell id="ydEcgM_lJdDM1MpCH6FX-4" value="&lt;h1 style=&quot;margin-top: 0px;&quot;&gt;Features of Admin interface&lt;/h1&gt;&lt;p&gt;1, Generate User/QR&lt;/p&gt;&lt;p&gt;2, Upload photos/videos&lt;/p&gt;&lt;p&gt;3, Add Gmaps locations&lt;/p&gt;&lt;p&gt;4, Live YouTube videos Links&lt;/p&gt;&lt;p&gt;5, Prewedding shoot.&lt;/p&gt;&lt;p&gt;&lt;br&gt;&lt;/p&gt;" style="text;html=1;whiteSpace=wrap;overflow=hidden;rounded=0;" vertex="1" parent="WIyWlLk6GJQsqaUBKTNV-1">
          <mxGeometry x="40" y="320" width="240" height="210" as="geometry" />
        </mxCell>
        <mxCell id="ydEcgM_lJdDM1MpCH6FX-6" value="&lt;h1 style=&quot;margin-top: 0px;&quot;&gt;Tech Specs&lt;/h1&gt;&lt;p&gt;&lt;/p&gt;&lt;ul&gt;&lt;li&gt;Backend - Python&amp;nbsp;&lt;/li&gt;&lt;li&gt;Frontend - React&lt;/li&gt;&lt;li&gt;Object store - blob storage(Azure)&lt;/li&gt;&lt;li&gt;Deployment in Azure Webapps&lt;/li&gt;&lt;li&gt;Additional functionality - Azure Functions&amp;nbsp;&lt;/li&gt;&lt;/ul&gt;&lt;p&gt;&lt;/p&gt;" style="text;html=1;whiteSpace=wrap;overflow=hidden;rounded=0;" vertex="1" parent="WIyWlLk6GJQsqaUBKTNV-1">
          <mxGeometry x="520" y="320" width="290" height="130" as="geometry" />
        </mxCell>
        <mxCell id="ydEcgM_lJdDM1MpCH6FX-11" value="Resource Group Without Function app" style="fontStyle=0;verticalAlign=top;align=center;spacingTop=-2;fillColor=none;rounded=0;whiteSpace=wrap;html=1;strokeColor=#919191;strokeWidth=2;dashed=1;container=1;collapsible=0;expand=0;recursiveResize=0;" vertex="1" parent="WIyWlLk6GJQsqaUBKTNV-1">
          <mxGeometry x="40" y="630" width="780" height="380" as="geometry" />
        </mxCell>
        <mxCell id="ydEcgM_lJdDM1MpCH6FX-14" value="&lt;div&gt;Virtual Network&lt;/div&gt;" style="sketch=0;outlineConnect=0;gradientColor=none;html=1;whiteSpace=wrap;fontSize=12;fontStyle=0;shape=mxgraph.aws4.group;grIcon=mxgraph.aws4.group_subnet;strokeColor=#879196;fillColor=none;verticalAlign=top;align=left;spacingLeft=30;fontColor=#879196;dashed=0;" vertex="1" parent="ydEcgM_lJdDM1MpCH6FX-11">
          <mxGeometry x="20" y="26.880000000000003" width="740" height="330" as="geometry" />
        </mxCell>
        <mxCell id="ydEcgM_lJdDM1MpCH6FX-17" value="Private subnet" style="points=[[0,0],[0.25,0],[0.5,0],[0.75,0],[1,0],[1,0.25],[1,0.5],[1,0.75],[1,1],[0.75,1],[0.5,1],[0.25,1],[0,1],[0,0.75],[0,0.5],[0,0.25]];outlineConnect=0;gradientColor=none;html=1;whiteSpace=wrap;fontSize=12;fontStyle=0;container=1;pointerEvents=0;collapsible=0;recursiveResize=0;shape=mxgraph.aws4.group;grIcon=mxgraph.aws4.group_security_group;grStroke=0;strokeColor=#00A4A6;fillColor=#E6F6F7;verticalAlign=top;align=left;spacingLeft=30;fontColor=#147EBA;dashed=0;" vertex="1" parent="ydEcgM_lJdDM1MpCH6FX-11">
          <mxGeometry x="400" y="60" width="340" height="276.25" as="geometry" />
        </mxCell>
        <mxCell id="ydEcgM_lJdDM1MpCH6FX-18" value="Public subnet" style="points=[[0,0],[0.25,0],[0.5,0],[0.75,0],[1,0],[1,0.25],[1,0.5],[1,0.75],[1,1],[0.75,1],[0.5,1],[0.25,1],[0,1],[0,0.75],[0,0.5],[0,0.25]];outlineConnect=0;gradientColor=none;html=1;whiteSpace=wrap;fontSize=12;fontStyle=0;container=1;pointerEvents=0;collapsible=0;recursiveResize=0;shape=mxgraph.aws4.group;grIcon=mxgraph.aws4.group_security_group;grStroke=0;strokeColor=#7AA116;fillColor=#F2F6E8;verticalAlign=top;align=left;spacingLeft=30;fontColor=#248814;dashed=0;" vertex="1" parent="ydEcgM_lJdDM1MpCH6FX-11">
          <mxGeometry x="50" y="60" width="321.25" height="276.25" as="geometry" />
        </mxCell>
        <mxCell id="ydEcgM_lJdDM1MpCH6FX-10" value="Object store" style="image;aspect=fixed;html=1;points=[];align=center;fontSize=12;image=img/lib/azure2/storage/Storage_Accounts.svg;" vertex="1" parent="ydEcgM_lJdDM1MpCH6FX-11">
          <mxGeometry x="660" y="176.88" width="37.5" height="30" as="geometry" />
        </mxCell>
        <mxCell id="ydEcgM_lJdDM1MpCH6FX-33" value="" style="edgeStyle=orthogonalEdgeStyle;rounded=0;orthogonalLoop=1;jettySize=auto;html=1;" edge="1" parent="ydEcgM_lJdDM1MpCH6FX-11" source="ydEcgM_lJdDM1MpCH6FX-8" target="ydEcgM_lJdDM1MpCH6FX-22">
          <mxGeometry relative="1" as="geometry">
            <mxPoint x="439.3299999999997" y="130" as="targetPoint" />
            <mxPoint x="320" y="300.0044827586207" as="sourcePoint" />
          </mxGeometry>
        </mxCell>
        <mxCell id="ydEcgM_lJdDM1MpCH6FX-8" value="Webapp (Full Application Python + JS)" style="image;aspect=fixed;html=1;points=[];align=center;fontSize=12;image=img/lib/azure2/app_services/App_Services.svg;" vertex="1" parent="ydEcgM_lJdDM1MpCH6FX-11">
          <mxGeometry x="180" y="166.88" width="50" height="50" as="geometry" />
        </mxCell>
        <mxCell id="ydEcgM_lJdDM1MpCH6FX-37" value="" style="edgeStyle=orthogonalEdgeStyle;rounded=0;orthogonalLoop=1;jettySize=auto;html=1;" edge="1" parent="ydEcgM_lJdDM1MpCH6FX-11" source="ydEcgM_lJdDM1MpCH6FX-22" target="ydEcgM_lJdDM1MpCH6FX-10">
          <mxGeometry relative="1" as="geometry">
            <mxPoint x="567" y="245" as="targetPoint" />
          </mxGeometry>
        </mxCell>
        <mxCell id="ydEcgM_lJdDM1MpCH6FX-22" value="MongoDB" style="image;aspect=fixed;html=1;points=[];align=center;fontSize=12;image=img/lib/azure2/databases/Azure_Cosmos_DB.svg;" vertex="1" parent="ydEcgM_lJdDM1MpCH6FX-11">
          <mxGeometry x="440" y="166.88" width="50" height="50" as="geometry" />
        </mxCell>
        <mxCell id="ydEcgM_lJdDM1MpCH6FX-38" value="&lt;b&gt;&lt;u&gt;&lt;font style=&quot;font-size: 16px;&quot;&gt;Arch Diagram&lt;/font&gt;&lt;/u&gt;&lt;/b&gt;" style="text;html=1;align=center;verticalAlign=middle;whiteSpace=wrap;rounded=0;" vertex="1" parent="WIyWlLk6GJQsqaUBKTNV-1">
          <mxGeometry x="345" y="580" width="160" height="30" as="geometry" />
        </mxCell>
        <mxCell id="ydEcgM_lJdDM1MpCH6FX-39" value="&lt;h1&gt;&lt;b&gt;Project Eventspace&lt;/b&gt;&lt;/h1&gt;" style="text;html=1;align=center;verticalAlign=middle;whiteSpace=wrap;rounded=0;fillColor=#ffe6cc;strokeColor=#d79b00;" vertex="1" parent="WIyWlLk6GJQsqaUBKTNV-1">
          <mxGeometry x="225" y="20" width="400" height="20" as="geometry" />
        </mxCell>
        <mxCell id="ydEcgM_lJdDM1MpCH6FX-40" value="Resource Group with function app" style="fontStyle=0;verticalAlign=top;align=center;spacingTop=-2;fillColor=none;rounded=0;whiteSpace=wrap;html=1;strokeColor=#919191;strokeWidth=2;dashed=1;container=1;collapsible=0;expand=0;recursiveResize=0;" vertex="1" parent="WIyWlLk6GJQsqaUBKTNV-1">
          <mxGeometry x="40" y="1050" width="780" height="380" as="geometry" />
        </mxCell>
        <mxCell id="ydEcgM_lJdDM1MpCH6FX-41" value="&lt;div&gt;Virtual Network&lt;/div&gt;" style="sketch=0;outlineConnect=0;gradientColor=none;html=1;whiteSpace=wrap;fontSize=12;fontStyle=0;shape=mxgraph.aws4.group;grIcon=mxgraph.aws4.group_subnet;strokeColor=#879196;fillColor=none;verticalAlign=top;align=left;spacingLeft=30;fontColor=#879196;dashed=0;" vertex="1" parent="ydEcgM_lJdDM1MpCH6FX-40">
          <mxGeometry x="20" y="26.880000000000003" width="740" height="330" as="geometry" />
        </mxCell>
        <mxCell id="ydEcgM_lJdDM1MpCH6FX-42" value="Private subnet" style="points=[[0,0],[0.25,0],[0.5,0],[0.75,0],[1,0],[1,0.25],[1,0.5],[1,0.75],[1,1],[0.75,1],[0.5,1],[0.25,1],[0,1],[0,0.75],[0,0.5],[0,0.25]];outlineConnect=0;gradientColor=none;html=1;whiteSpace=wrap;fontSize=12;fontStyle=0;container=1;pointerEvents=0;collapsible=0;recursiveResize=0;shape=mxgraph.aws4.group;grIcon=mxgraph.aws4.group_security_group;grStroke=0;strokeColor=#00A4A6;fillColor=#E6F6F7;verticalAlign=top;align=left;spacingLeft=30;fontColor=#147EBA;dashed=0;" vertex="1" parent="ydEcgM_lJdDM1MpCH6FX-40">
          <mxGeometry x="400" y="60" width="340" height="276.25" as="geometry" />
        </mxCell>
        <mxCell id="ydEcgM_lJdDM1MpCH6FX-43" value="Public subnet" style="points=[[0,0],[0.25,0],[0.5,0],[0.75,0],[1,0],[1,0.25],[1,0.5],[1,0.75],[1,1],[0.75,1],[0.5,1],[0.25,1],[0,1],[0,0.75],[0,0.5],[0,0.25]];outlineConnect=0;gradientColor=none;html=1;whiteSpace=wrap;fontSize=12;fontStyle=0;container=1;pointerEvents=0;collapsible=0;recursiveResize=0;shape=mxgraph.aws4.group;grIcon=mxgraph.aws4.group_security_group;grStroke=0;strokeColor=#7AA116;fillColor=#F2F6E8;verticalAlign=top;align=left;spacingLeft=30;fontColor=#248814;dashed=0;" vertex="1" parent="ydEcgM_lJdDM1MpCH6FX-40">
          <mxGeometry x="50" y="60" width="321.25" height="276.25" as="geometry" />
        </mxCell>
        <mxCell id="ydEcgM_lJdDM1MpCH6FX-44" value="Object store" style="image;aspect=fixed;html=1;points=[];align=center;fontSize=12;image=img/lib/azure2/storage/Storage_Accounts.svg;" vertex="1" parent="ydEcgM_lJdDM1MpCH6FX-40">
          <mxGeometry x="660" y="230" width="37.5" height="30" as="geometry" />
        </mxCell>
        <mxCell id="ydEcgM_lJdDM1MpCH6FX-45" value="" style="edgeStyle=orthogonalEdgeStyle;rounded=0;orthogonalLoop=1;jettySize=auto;html=1;" edge="1" parent="ydEcgM_lJdDM1MpCH6FX-40" source="ydEcgM_lJdDM1MpCH6FX-46" target="ydEcgM_lJdDM1MpCH6FX-48">
          <mxGeometry relative="1" as="geometry">
            <mxPoint x="485.0000000000002" y="139.97" as="targetPoint" />
            <mxPoint x="320" y="300.0044827586207" as="sourcePoint" />
          </mxGeometry>
        </mxCell>
        <mxCell id="ydEcgM_lJdDM1MpCH6FX-46" value="Webapp (Full Application Python + JS)" style="image;aspect=fixed;html=1;points=[];align=center;fontSize=12;image=img/lib/azure2/app_services/App_Services.svg;" vertex="1" parent="ydEcgM_lJdDM1MpCH6FX-40">
          <mxGeometry x="180" y="150" width="50" height="50" as="geometry" />
        </mxCell>
        <mxCell id="ydEcgM_lJdDM1MpCH6FX-47" value="" style="edgeStyle=orthogonalEdgeStyle;rounded=0;orthogonalLoop=1;jettySize=auto;html=1;" edge="1" parent="ydEcgM_lJdDM1MpCH6FX-40" source="ydEcgM_lJdDM1MpCH6FX-48" target="ydEcgM_lJdDM1MpCH6FX-50">
          <mxGeometry relative="1" as="geometry" />
        </mxCell>
        <mxCell id="ydEcgM_lJdDM1MpCH6FX-48" value="Python" style="image;aspect=fixed;html=1;points=[];align=center;fontSize=12;image=img/lib/azure2/compute/Function_Apps.svg;direction=east;" vertex="1" parent="ydEcgM_lJdDM1MpCH6FX-40">
          <mxGeometry x="439.33" y="110" width="45.35" height="40" as="geometry" />
        </mxCell>
        <mxCell id="ydEcgM_lJdDM1MpCH6FX-49" value="" style="edgeStyle=orthogonalEdgeStyle;rounded=0;orthogonalLoop=1;jettySize=auto;html=1;" edge="1" parent="ydEcgM_lJdDM1MpCH6FX-40" source="ydEcgM_lJdDM1MpCH6FX-50" target="ydEcgM_lJdDM1MpCH6FX-44">
          <mxGeometry relative="1" as="geometry">
            <mxPoint x="567" y="245" as="targetPoint" />
          </mxGeometry>
        </mxCell>
        <mxCell id="ydEcgM_lJdDM1MpCH6FX-50" value="MongoDB" style="image;aspect=fixed;html=1;points=[];align=center;fontSize=12;image=img/lib/azure2/databases/Azure_Cosmos_DB.svg;" vertex="1" parent="ydEcgM_lJdDM1MpCH6FX-40">
          <mxGeometry x="437" y="220" width="50" height="50" as="geometry" />
        </mxCell>
        <mxCell id="ydEcgM_lJdDM1MpCH6FX-52" value="&lt;h1 style=&quot;margin-top: 0px;&quot;&gt;Tech Specs&lt;/h1&gt;&lt;p&gt;&lt;/p&gt;&lt;ul&gt;&lt;li&gt;&lt;span style=&quot;background-color: initial;&quot;&gt;Webapp- used for the entire application code&lt;/span&gt;&lt;br&gt;&lt;/li&gt;&lt;li&gt;Object store - Blob store used to store images and photos&lt;/li&gt;&lt;li&gt;Functions- Used to execute Python code privately ex (corn runs)&lt;/li&gt;&lt;li&gt;MongoDB/SQL- Used to store user details&amp;nbsp;&lt;/li&gt;&lt;/ul&gt;&lt;p&gt;&lt;/p&gt;" style="text;html=1;whiteSpace=wrap;overflow=hidden;rounded=0;" vertex="1" parent="WIyWlLk6GJQsqaUBKTNV-1">
          <mxGeometry x="30" y="1480" width="400" height="160" as="geometry" />
        </mxCell>
        <mxCell id="ydEcgM_lJdDM1MpCH6FX-53" value="&lt;h1 style=&quot;forced-color-adjust: none; color: rgb(0, 0, 0); font-family: Helvetica; font-style: normal; font-variant-ligatures: normal; font-variant-caps: normal; letter-spacing: normal; orphans: 2; text-align: left; text-indent: 0px; text-transform: none; widows: 2; word-spacing: 0px; -webkit-text-stroke-width: 0px; white-space: normal; background-color: rgb(251, 251, 251); text-decoration-thickness: initial; text-decoration-style: initial; text-decoration-color: initial; margin-top: 0px;&quot;&gt;Cost Est&lt;/h1&gt;&lt;p style=&quot;forced-color-adjust: none; color: rgb(0, 0, 0); font-family: Helvetica; font-size: 12px; font-style: normal; font-variant-ligatures: normal; font-variant-caps: normal; font-weight: 400; letter-spacing: normal; orphans: 2; text-align: left; text-indent: 0px; text-transform: none; widows: 2; word-spacing: 0px; -webkit-text-stroke-width: 0px; white-space: normal; background-color: rgb(251, 251, 251); text-decoration-thickness: initial; text-decoration-style: initial; text-decoration-color: initial;&quot;&gt;&lt;/p&gt;&lt;ul style=&quot;forced-color-adjust: none; color: rgb(0, 0, 0); font-family: Helvetica; font-size: 12px; font-style: normal; font-variant-ligatures: normal; font-variant-caps: normal; font-weight: 400; letter-spacing: normal; orphans: 2; text-align: left; text-indent: 0px; text-transform: none; widows: 2; word-spacing: 0px; -webkit-text-stroke-width: 0px; white-space: normal; background-color: rgb(251, 251, 251); text-decoration-thickness: initial; text-decoration-style: initial; text-decoration-color: initial;&quot;&gt;&lt;li style=&quot;forced-color-adjust: none;&quot;&gt;TODO&amp;nbsp;&lt;br&gt;&lt;/li&gt;&lt;/ul&gt;" style="text;whiteSpace=wrap;html=1;" vertex="1" parent="WIyWlLk6GJQsqaUBKTNV-1">
          <mxGeometry x="520" y="1480" width="290" height="150" as="geometry" />
        </mxCell>
      </root>
    </mxGraphModel>
  </diagram>
</mxfile>
